<svg id="Layer_1" data-name="Layer 1" xmlns="http://www.w3.org/2000/svg" viewBox="0 0 2335.41 420.19"><defs><style>.cls-1{fill:#e3dcf4;}</style></defs><title>Artboard 12</title><path class="cls-1" d="M2335.41,420.19V132.75c-39.62,26.59-81.59,43.25-110.29,27.07-61.51-34.67-127.32-77.32-166.14-78.7s-88.5,15.19-90.06,62.13c-1,31.63-.68,53.85-.33,65a29.17,29.17,0,0,1,.33,4.39c0,.73,0,1.45-.08,2.17.05,1.08.08,1.63.08,1.63h-.25c-2.11,16.13-17.53,28.65-36.24,28.65s-34.12-12.52-36.24-28.65H1896V72.6q.14-2.36.15-4.77c0-37.46-26-67.83-58.1-67.83s-58,30.28-58.1,67.66h0v.06s0,.07,0,.11c0,1,0,2,.06,3,.24,12.69,1.1,59.14,1.1,66.87,0,9-15.53,71.8-110.24,55.23-90.91-15.9-18.75,169.18-12.8,184.07h421.23v42.55Z"/><path class="cls-1" d="M978.46,429.4c14.18-58.27,25.19-139.19-26.86-128.45-80.29,16.57-93.46-46.26-93.46-55.23,0-7.74.73-54.19.94-66.87,0-1,.05-2,.05-3,0,0,0-.07,0-.11v-.06h0C859.06,138.26,837,108,809.88,108s-49.26,30.37-49.26,67.83q0,2.41.12,4.77V324.42h-.21c-1.79,16.13-14.86,28.65-30.72,28.65s-28.93-12.52-30.72-28.65h-.21s0-.55.07-1.63c0-.72-.07-1.44-.07-2.17a34.29,34.29,0,0,1,.28-4.39c.3-11.14.6-33.36-.28-65-1.32-46.95-43.44-63.52-76.34-62.13s-90.82,30.38-140.84,78.7c-6,5.76-11.54,10.73-16.74,15-126-5.5-148.18-118.7-164.33-138S273.34,27.44,250.1,8.63,101.13,110,101.13,110s-27.28,26.76-36.37,37.89S29.4,185,13.23,184.43A73.2,73.2,0,0,0,0,185.32V429.4Z"/></svg>