<svg xmlns="http://www.w3.org/2000/svg" xmlns:xlink="http://www.w3.org/1999/xlink" viewBox="0 0 292.19 255.3"><defs><style>.cls-1{fill:url(#radial-gradient);}.cls-2{fill:#f1f9de;}.cls-3{fill:url(#radial-gradient-2);}.cls-4{fill:url(#radial-gradient-3);}.cls-5{fill:url(#radial-gradient-4);}.cls-6{fill:url(#radial-gradient-5);}.cls-7{fill:url(#radial-gradient-6);}.cls-8{fill:url(#radial-gradient-7);}.cls-9{fill:url(#radial-gradient-8);}.cls-10{fill:url(#radial-gradient-9);}.cls-11{fill:url(#radial-gradient-10);}.cls-12{fill:url(#radial-gradient-11);}.cls-13{fill:url(#radial-gradient-12);}.cls-14{opacity:0.6;}.cls-15{fill:url(#radial-gradient-13);}.cls-16{fill:url(#radial-gradient-14);}.cls-17{fill:url(#radial-gradient-15);}.cls-18{fill:url(#radial-gradient-16);}.cls-19{fill:url(#radial-gradient-17);}.cls-20{fill:url(#radial-gradient-18);}.cls-21{fill:url(#radial-gradient-19);}.cls-22{fill:url(#radial-gradient-20);}.cls-23{fill:url(#radial-gradient-21);}.cls-24{fill:url(#radial-gradient-22);}.cls-25{fill:url(#radial-gradient-23);}.cls-26{fill:url(#radial-gradient-24);}.cls-27{fill:url(#radial-gradient-25);}.cls-28{fill:url(#radial-gradient-26);}.cls-29{fill:url(#radial-gradient-27);}.cls-30{fill:url(#radial-gradient-28);}.cls-31{opacity:0.39;}.cls-32{fill:url(#radial-gradient-29);}</style><radialGradient id="radial-gradient" cx="1194.88" cy="-328.1" r="56.53" gradientTransform="translate(-270.74 -1138.35) rotate(90)" gradientUnits="userSpaceOnUse"><stop offset="0" stop-color="aqua" stop-opacity="0.6"/><stop offset="0.84" stop-color="#fff" stop-opacity="0"/></radialGradient><radialGradient id="radial-gradient-2" cx="81.91" cy="169.19" r="20.1" gradientTransform="matrix(1, 0, 0, 1, 0, 0)" xlink:href="#radial-gradient"/><radialGradient id="radial-gradient-3" cx="1416.5" cy="-379.05" r="20.1" gradientTransform="translate(-159.39 -1200.69) rotate(90)" xlink:href="#radial-gradient"/><radialGradient id="radial-gradient-4" cx="1387.59" cy="-333.14" r="20.1" gradientTransform="translate(-167.73 -1171.41) rotate(90)" xlink:href="#radial-gradient"/><radialGradient id="radial-gradient-5" cx="1456.12" cy="-407.66" r="11.3" gradientTransform="translate(-142.55 -1222.34) rotate(90)" xlink:href="#radial-gradient"/><radialGradient id="radial-gradient-6" cx="460.06" cy="183.98" r="4.83" gradientTransform="translate(383.34 -263.97) rotate(90)" xlink:href="#radial-gradient"/><radialGradient id="radial-gradient-7" cx="407.35" cy="233.14" r="13.95" gradientTransform="translate(440.64 -197.31) rotate(90)" xlink:href="#radial-gradient"/><radialGradient id="radial-gradient-8" cx="1674.87" cy="-1203.51" r="7.84" gradientTransform="translate(1896.33 -970.62) rotate(180)" xlink:href="#radial-gradient"/><radialGradient id="radial-gradient-9" cx="1528.3" cy="-753.16" r="3.35" gradientTransform="translate(-511.63 -1306.61) rotate(90)" xlink:href="#radial-gradient"/><radialGradient id="radial-gradient-10" cx="1137.4" cy="-2167.86" r="13.71" gradientTransform="translate(1381.41 -1929.82) rotate(180)" xlink:href="#radial-gradient"/><radialGradient id="radial-gradient-11" cx="1657.16" cy="-1079.03" r="9.52" gradientTransform="translate(1904.75 -849.45) rotate(180)" xlink:href="#radial-gradient"/><radialGradient id="radial-gradient-12" cx="355.68" cy="-2448.07" r="5.35" gradientTransform="translate(2680.49 595.44) rotate(-90)" xlink:href="#radial-gradient"/><radialGradient id="radial-gradient-13" cx="1405.88" cy="-400.64" r="60.05" gradientTransform="translate(-168.51 -1210.65) rotate(90)" xlink:href="#radial-gradient"/><radialGradient id="radial-gradient-14" cx="451.81" cy="-2366.31" r="11.9" gradientTransform="translate(522.05 -2297.88) rotate(180)" xlink:href="#radial-gradient"/><radialGradient id="radial-gradient-15" cx="475.27" cy="-2383.25" r="6.69" gradientTransform="translate(524.21 -2295.23) rotate(180)" xlink:href="#radial-gradient"/><radialGradient id="radial-gradient-16" cx="1383.62" cy="-1734.86" r="8.26" gradientTransform="translate(1460.07 -1686.58) rotate(180)" xlink:href="#radial-gradient"/><radialGradient id="radial-gradient-17" cx="-309.85" cy="-2186.01" r="4.64" gradientTransform="translate(2246.69 -244.86) rotate(-90)" xlink:href="#radial-gradient"/><radialGradient id="radial-gradient-18" cx="5.15" cy="-2349.51" r="1.98" gradientTransform="translate(2410.98 83.72) rotate(-90)" xlink:href="#radial-gradient"/><radialGradient id="radial-gradient-19" cx="-886.58" cy="-1276.4" r="8.12" gradientTransform="translate(1328.52 -810.91) rotate(-90)" xlink:href="#radial-gradient"/><radialGradient id="radial-gradient-20" cx="-281.48" cy="-2135.68" r="5.63" gradientTransform="translate(2191.39 -201.71) rotate(-90)" xlink:href="#radial-gradient"/><radialGradient id="radial-gradient-21" cx="-706.68" cy="-504.85" r="3.17" gradientTransform="translate(760.87 573.9)" xlink:href="#radial-gradient"/><radialGradient id="radial-gradient-22" cx="455.37" cy="-2381.04" r="8.98" gradientTransform="translate(523.82 -2297.56) rotate(180)" xlink:href="#radial-gradient"/><radialGradient id="radial-gradient-23" cx="-288.87" cy="-2145.64" r="4.25" gradientTransform="translate(2203.11 -196.83) rotate(-90)" xlink:href="#radial-gradient"/><radialGradient id="radial-gradient-24" cx="799.54" cy="151.46" r="6.69" gradientTransform="translate(194.76 -698.87) rotate(90)" xlink:href="#radial-gradient"/><radialGradient id="radial-gradient-25" cx="1504.22" cy="-369.75" r="4.64" gradientTransform="translate(-349.03 -1376.63) rotate(90)" xlink:href="#radial-gradient"/><radialGradient id="radial-gradient-26" cx="1721.75" cy="-1069.61" r="8.12" gradientTransform="translate(-1034.65 -1608.44) rotate(90)" xlink:href="#radial-gradient"/><radialGradient id="radial-gradient-27" cx="1435.01" cy="-238.17" r="5.63" gradientTransform="translate(-220.28 -1330.07) rotate(90)" xlink:href="#radial-gradient"/><radialGradient id="radial-gradient-28" cx="782.47" cy="144.15" r="8.98" gradientTransform="translate(173.84 -694.45) rotate(90)" xlink:href="#radial-gradient"/><radialGradient id="radial-gradient-29" cx="1200.6" cy="-319.69" r="53.35" gradientTransform="translate(-266.34 -1134.72) rotate(90)" xlink:href="#radial-gradient"/></defs><title>phone-sprites</title><g id="phone-sprites"><g id="phone-sprite-glow"><circle class="cls-1" cx="57.36" cy="56.54" r="56.53" transform="translate(-21.42 39.8) rotate(-32.59)"/></g><g id="phone-sprite"><rect class="cls-2" x="78.79" y="163.85" width="5.33" height="10.67" transform="translate(-51.1 36.19) rotate(-19.2)"/><circle class="cls-3" cx="81.91" cy="169.19" r="20.1"/></g><g id="phone-sprite-2" data-name="phone-sprite"><rect class="cls-2" x="216.75" y="210.09" width="5.33" height="10.67" transform="translate(180.26 -89.56) rotate(38.21)"/><circle class="cls-4" cx="219.66" cy="215.81" r="20.1" transform="translate(-81.65 152.3) rotate(-32.59)"/></g><g id="phone-sprite-3" data-name="phone-sprite"><rect class="cls-2" x="162.5" y="210.47" width="5.33" height="10.67" transform="translate(168.88 -55.92) rotate(38.21)"/><circle class="cls-5" cx="165.41" cy="216.19" r="20.1" transform="translate(-90.4 123.14) rotate(-32.59)"/></g><g id="phone-sprite-4" data-name="phone-sprite"><rect class="cls-2" x="263.47" y="230.57" width="3" height="6" transform="translate(201.25 -113.86) rotate(38.21)"/><circle class="cls-6" cx="265.11" cy="233.78" r="11.3" transform="translate(-84.18 179.61) rotate(-32.59)"/></g><g id="phone-sprite-5" data-name="phone-sprite"><rect class="cls-2" x="198.61" y="194.79" width="1.28" height="2.56" transform="translate(-25.55 29.91) rotate(-8.07)"/><circle class="cls-7" cx="199.36" cy="196.09" r="4.83" transform="translate(-31.52 353.85) rotate(-78.87)"/></g><g id="phone-sprite-6" data-name="phone-sprite"><rect class="cls-2" x="205.34" y="206.31" width="3.7" height="7.4" transform="translate(-45.02 56.97) rotate(-14.14)"/><circle class="cls-8" cx="207.51" cy="210.04" r="13.95" transform="translate(-20.01 398.21) rotate(-84.94)"/></g><g id="phone-sprite-7" data-name="phone-sprite"><rect class="cls-2" x="220.43" y="230.63" width="2.08" height="4.16" transform="translate(393.08 -38.87) rotate(75.87)"/><circle class="cls-9" cx="221.46" cy="232.89" r="7.84" transform="translate(-30.09 432.91) rotate(-84.93)"/></g><g id="phone-sprite-8" data-name="phone-sprite"><rect class="cls-2" x="241.06" y="220.73" width="0.89" height="1.78" transform="translate(288.74 -102.74) rotate(55.74)"/><circle class="cls-10" cx="241.52" cy="221.7" r="3.35" transform="translate(-49.31 70.37) rotate(-15.06)"/></g><g id="phone-sprite-9" data-name="phone-sprite"><rect class="cls-2" x="242.44" y="234.22" width="3.64" height="7.28" transform="translate(580 178.56) rotate(125.75)"/><circle class="cls-11" cx="244.01" cy="238.03" r="13.71" transform="translate(-92.46 183.34) rotate(-35.06)"/></g><g id="phone-sprite-10" data-name="phone-sprite"><rect class="cls-2" x="246.33" y="226.84" width="2.53" height="5.05" transform="matrix(0.29, 0.96, -0.96, 0.29, 396.65, -73.44)"/><circle class="cls-12" cx="247.58" cy="229.58" r="9.52" transform="translate(7.03 466.52) rotate(-87.41)"/></g><g id="phone-sprite-11" data-name="phone-sprite"><rect class="cls-2" x="231.82" y="238.35" width="1.42" height="2.84" transform="translate(523.86 403.13) rotate(163.4)"/><circle class="cls-13" cx="232.41" cy="239.76" r="5.35" transform="translate(-17.65 461.05) rotate(-87.4)"/></g><g id="phone-sprite-glow-2" data-name="phone-sprite-glow" class="cls-14"><circle class="cls-15" cx="232.13" cy="195.24" r="60.05" transform="translate(-68.61 155.78) rotate(-32.59)"/></g><g id="phone-sprite-12" data-name="phone-sprite"><rect class="cls-2" x="68.93" y="65.25" width="3.16" height="6.31" transform="translate(163.85 99.02) rotate(154.03)"/><circle class="cls-16" cx="70.24" cy="68.43" r="11.9" transform="translate(-7.58 8.76) rotate(-6.77)"/></g><g id="phone-sprite-13" data-name="phone-sprite"><rect class="cls-2" x="48.21" y="86.22" width="1.78" height="3.55" transform="translate(131.77 145.62) rotate(154.03)"/><circle class="cls-17" cx="48.95" cy="88.02" r="6.69" transform="translate(-10.04 6.38) rotate(-6.77)"/></g><g id="phone-sprite-14" data-name="phone-sprite"><rect class="cls-2" x="75.45" y="45.93" width="2.19" height="4.38" transform="translate(139.17 -17.1) rotate(101.68)"/><circle class="cls-18" cx="76.45" cy="48.28" r="8.26" transform="translate(-4.22 89.11) rotate(-59.12)"/></g><g id="phone-sprite-15" data-name="phone-sprite"><rect class="cls-2" x="60.15" y="63.81" width="1.23" height="2.46" transform="translate(107.09 141.04) rotate(-168.31)"/><circle class="cls-19" cx="60.68" cy="64.99" r="4.64" transform="translate(-26.24 83.7) rotate(-59.11)"/></g><g id="phone-sprite-16" data-name="phone-sprite"><rect class="cls-2" x="61.25" y="78.05" width="0.53" height="1.05" transform="translate(133.89 147.27) rotate(171.56)"/><circle class="cls-20" cx="61.47" cy="78.57" r="1.98" transform="translate(-27.19 124.28) rotate(-79.24)"/></g><g id="phone-sprite-17" data-name="phone-sprite"><rect class="cls-2" x="51.07" y="73.7" width="2.15" height="4.31" transform="translate(10.28 157.84) rotate(-118.43)"/><circle class="cls-21" cx="52.12" cy="75.68" r="8.12" transform="translate(-11.47 9.35) rotate(-9.24)"/></g><g id="phone-sprite-18" data-name="phone-sprite"><rect class="cls-2" x="55.07" y="78.33" width="1.49" height="2.99" transform="translate(98.13 167.55) rotate(-170.78)"/><circle class="cls-22" cx="55.7" cy="79.76" r="5.63" transform="translate(-40.96 90.8) rotate(-61.59)"/></g><g id="phone-sprite-19" data-name="phone-sprite"><rect class="cls-2" x="53.74" y="68.28" width="0.84" height="1.68" transform="translate(-22.75 111.49) rotate(-80.77)"/><circle class="cls-23" cx="54.19" cy="69.05" r="3.17" transform="translate(-32.33 83.84) rotate(-61.58)"/></g><g id="phone-sprite-20" data-name="phone-sprite"><rect class="cls-2" x="67.45" y="81.08" width="2.38" height="4.76" transform="translate(166.9 128.44) rotate(154.03)"/><circle class="cls-24" cx="68.44" cy="83.48" r="8.98" transform="translate(-9.37 8.65) rotate(-6.77)"/></g><g id="phone-sprite-21" data-name="phone-sprite"><rect class="cls-2" x="56.99" y="90.95" width="1.13" height="2.26" transform="translate(99.62 192.19) rotate(-170.78)"/><circle class="cls-25" cx="57.47" cy="92.03" r="4.25" transform="translate(-50.82 98.79) rotate(-61.59)"/></g><g id="phone-sprite-22" data-name="phone-sprite"><rect class="cls-2" x="42.27" y="98.84" width="1.78" height="3.55" transform="translate(0.91 -0.39) rotate(0.52)"/><circle class="cls-26" cx="43.3" cy="100.67" r="6.69" transform="translate(-66.07 107.47) rotate(-70.28)"/></g><g id="phone-sprite-23" data-name="phone-sprite"><rect class="cls-2" x="20.04" y="126.27" width="1.23" height="2.46" transform="translate(83.23 14.5) rotate(38.18)"/><circle class="cls-27" cx="20.71" cy="127.59" r="4.64" transform="translate(-65.52 31.3) rotate(-32.63)"/></g><g id="phone-sprite-24" data-name="phone-sprite"><rect class="cls-2" x="33.87" y="110.96" width="2.15" height="4.31" transform="translate(128.65 40.74) rotate(69.48)"/><circle class="cls-28" cx="34.95" cy="113.3" r="8.12" transform="translate(-2.6 0.83) rotate(-1.32)"/></g><g id="phone-sprite-25" data-name="phone-sprite"><rect class="cls-2" x="17.07" y="103.34" width="1.49" height="2.99" transform="translate(64.53 9.31) rotate(35.7)"/><circle class="cls-29" cx="17.89" cy="104.94" r="5.63" transform="translate(-57.09 29.37) rotate(-35.1)"/></g><g id="phone-sprite-26" data-name="phone-sprite"><rect class="cls-2" x="28.31" y="85.57" width="2.38" height="4.76" transform="translate(0.8 -0.26) rotate(0.52)"/><circle class="cls-30" cx="29.69" cy="88.02" r="8.98" transform="translate(-63.18 86.28) rotate(-70.28)"/></g><g id="phone-sprite-glow-3" data-name="phone-sprite-glow" class="cls-31"><circle class="cls-32" cx="53.35" cy="65.89" r="53.35" transform="translate(-27.09 39.11) rotate(-32.59)"/></g></g></svg>