<svg id="Layer_1" data-name="Layer 1" xmlns="http://www.w3.org/2000/svg" viewBox="0 0 2334.41 252.05"><defs><style>.cls-1{fill:#c38202;}.cls-2{fill:#726759;}.cls-3{fill:#3bed96;}.cls-4{fill:#3b596a;}.cls-5{fill:#febe3d;}</style></defs><title>Artboard 15</title><path class="cls-1" d="M465.3,62.76c0,1.54-4.26,134.72-4.26,134.72H474.2l-5-134.72Z"/><polygon class="cls-2" points="467.62 197.48 474.2 197.48 469.17 62.76 467.62 62.76 467.62 197.48"/><circle class="cls-3" cx="467.78" cy="84.78" r="84.78"/><path class="cls-4" d="M748.06,40.72a18.37,18.37,0,0,0-36.74,0h0v22a14.71,14.71,0,0,1-3.81-6.07q-.11-.38-.23-.75h0a26.71,26.71,0,0,0-51.91,11.41h0V98.85a11.41,11.41,0,0,0,21.87,4.56h0s5.46-1.58,6.81,6.85a7.5,7.5,0,0,0,.4,1.53,15.33,15.33,0,0,0,30.26-3.47s0-9.47,7-9.47a9.1,9.1,0,0,1,7.69,3.62,9.69,9.69,0,0,0,18.68-3.62V40.72Z"/><path class="cls-4" d="M2068.26,73.23h-77.65a9.87,9.87,0,0,0-9.84,9.84v18.59a9.87,9.87,0,0,0,9.84,9.84h23v23.79a7.93,7.93,0,0,0,15.86,0V111.5h10.39v39.37a7.93,7.93,0,0,0,15.86,0V111.5h12.58a9.87,9.87,0,0,0,9.84-9.84V83.07A9.87,9.87,0,0,0,2068.26,73.23Z"/><path class="cls-4" d="M1406.05,199.59h43.29a22,22,0,0,0-21-25.89v0c-46.74-.53-58-28-58.1-37.51s0-32.21,0-32.21a43.31,43.31,0,1,0-86.62,0v95.56H1406Z"/><path class="cls-5" d="M1339.35,61.67a14.11,14.11,0,0,0,1-2.4l11.86-27.92L1341,36.55v-10l-14.2,14.2-14.2-14.2v10l-11.19-5.2,11.91,28.06a14.2,14.2,0,0,0,26,2.26h0Z"/><path class="cls-4" d="M2334.41,197.66H2057.55c-.42,0-.84,0-1.26,0h-113a27.2,27.2,0,1,0,0,54.39h113c.42,0,.84,0,1.26,0h276.86Z"/><path class="cls-4" d="M1722.63,197.66H0V252H1607.89c.59,0,1.17.06,1.77.06h113a27.2,27.2,0,0,0,0-54.39Z"/></svg>