<svg id="Layer_1" data-name="Layer 1" xmlns="http://www.w3.org/2000/svg" viewBox="0 0 1802.51 210.36"><defs><style>.cls-1{fill:#cbcbf7;}</style></defs><title>Artboard 13</title><path class="cls-1" d="M1802.51,210.36V105.86S1697.33,153,1596.83,154s-137-52.14-137-52.14h0c-14.67-31.68-42.3-56.5-76.34-68.15l0,0h0a135.8,135.8,0,0,0-110.8,10.39l-.13.06c-72.68,37-136.45,5.83-150.4-2C1083.59,16.29,1027.73,0,965.58,0a346.22,346.22,0,0,0-40.51,2.36,88.7,88.7,0,0,0-23,3.54,297.82,297.82,0,0,0-34.76,8.8c-45.67,9.9-76.86,9.8-93.12,8.51a439.89,439.89,0,0,0-64.34-4.67C627.61,18.54,554,40.8,504.45,75.91c-88.89,55.87-166.61,51.63-166.61,51.63C276.33,122,240,89.89,230.42,80.26a133.27,133.27,0,0,0-99.34-43.79C71.45,36.47,52.88,67.8,0,105.95V210.36Z"/></svg>