<svg id="Layer_1" data-name="Layer 1" xmlns="http://www.w3.org/2000/svg" viewBox="0 0 990.24 422.77"><defs><style>.cls-1{fill:#e3dcf4;}</style></defs><title>Artboard 10</title><path class="cls-1" d="M978.46,422.77c14.18-58.27,25.19-139.19-26.86-128.45-80.29,16.57-93.46-46.26-93.46-55.23,0-7.74.73-54.19.94-66.87,0-1,.05-2,.05-3,0,0,0-.07,0-.11V169h0c-.07-37.38-22.09-67.66-49.26-67.66s-49.26,30.37-49.26,67.83q0,2.41.12,4.77V317.79h-.21c-1.79,16.13-14.86,28.65-30.72,28.65s-28.93-12.52-30.72-28.65h-.21s0-.55.07-1.63c0-.72-.07-1.44-.07-2.17a34.29,34.29,0,0,1,.28-4.39c.3-11.14.6-33.36-.28-65-1.32-46.95-43.44-63.52-76.34-62.13s-90.82,30.38-140.84,78.7c-6,5.76-11.54,10.73-16.74,15-126-5.5-148.18-118.7-164.33-138S273.34,20.81,250.1,2s-149,101.35-149,101.35S73.85,130.1,64.76,141.23,29.4,178.33,13.23,177.8A73.2,73.2,0,0,0,0,178.68V422.77Z"/></svg>